<?xml version="1.0" encoding="utf-8"?>
<!-- Generator: Adobe Illustrator 22.1.0, SVG Export Plug-In . SVG Version: 6.00 Build 0)  -->
<svg version="1.1" id="VERSIONEN" xmlns="http://www.w3.org/2000/svg" xmlns:xlink="http://www.w3.org/1999/xlink" x="0px" y="0px"
	 viewBox="0 0 662.4 182.2" style="enable-background:new 0 0 662.4 182.2;" xml:space="preserve">
<style type="text/css">
	.st0{fill:#00305D;}
</style>
<g>
	<g>
		<path class="st0" d="M5.5,164c0-1.6,1.2-2.8,3.3-2.8c2.3,0,3.7,1.2,4.5,2l2.6-3.2c-1-1.1-3.3-2.5-6.8-2.5c-4.7,0-8,3-8,6.8
			c0,7.6,11.1,6.8,11.1,11.2c0,1.6-1.3,3-3.8,3c-2.9,0-4.9-1.6-6-2.7L0,179.3c1,1,3.7,2.8,7.9,2.8c5.7,0,8.6-3.3,8.6-6.9
			C16.5,167.7,5.5,168.5,5.5,164z"/>
		<path class="st0" d="M28.1,162.4c-6.1,0-8.4,4.1-8.4,10c0,5.9,2,9.8,8.2,9.8c6,0,8.4-4.1,8.4-10C36.3,166.3,34.3,162.4,28.1,162.4
			z M28.1,178.7c-3,0-4.1-2.3-4.1-6.6c0-4.3,1.1-6.4,3.9-6.4c3,0,4.2,2.2,4.2,6.6C32,176.7,31,178.7,28.1,178.7z"/>
		<path class="st0" d="M49.9,162.3c-2.3,0-4.3,1.2-5.2,2.3h-0.1l-0.8-1.9h-3.2v19.1h4.2v-13.2c0.6-1.5,2-2.7,3.8-2.7
			c2,0,3.1,1.3,3.1,3.6v12.3h4.2v-13.2C55.8,164.3,53.6,162.3,49.9,162.3z"/>
		<path class="st0" d="M70.3,162.3c-2.3,0-4.3,1.2-5.2,2.3H65l-0.8-1.9h-3.2v19.1h4.2v-13.2c0.6-1.5,2-2.7,3.8-2.7
			c2,0,3.1,1.3,3.1,3.6v12.3h4.2v-13.2C76.2,164.3,74,162.3,70.3,162.3z"/>
		<path class="st0" d="M88.8,162.4c-5,0-8.6,3.4-8.6,9.8c0,6.7,3,9.9,8.8,9.9c3.3,0,5.2-0.9,6.5-2l-1.8-3c-0.7,0.7-2.2,1.6-4.2,1.6
			c-3.4,0-5-1.7-5.1-5.3H96c0.2-1.4,0.2-2.4,0.2-3.4C96.2,165.4,93.5,162.4,88.8,162.4z M92.2,170.4h-7.7c0.1-3.1,1.9-4.8,4.2-4.8
			c2.4,0,3.5,1.4,3.5,3.9V170.4z"/>
		<path class="st0" d="M109.9,162.3c-2.3,0-4.3,1.2-5.2,2.3h-0.1l-0.8-1.9h-3.2v19.1h4.2v-13.2c0.6-1.5,2-2.7,3.8-2.7
			c2,0,3.1,1.3,3.1,3.6v12.3h4.2v-13.2C115.8,164.3,113.6,162.3,109.9,162.3z"/>
		<path class="st0" d="M124.3,167.8c0-1.1,0.9-2,2.6-2c1.6,0,3,0.9,3.8,1.7l2.7-2.7c-1.2-1.4-3.4-2.4-6.3-2.4
			c-4.3,0-6.8,2.7-6.8,5.7c0,6.4,9.1,5.2,9.1,8.5c0,1.2-0.8,2.1-2.8,2.1c-2.2,0-4.1-1.2-5-2.3l-2.5,3c1.1,1.1,3.5,2.7,7.3,2.7
			c5.1,0,7.2-3.2,7.2-5.8C133.5,169.9,124.3,171.2,124.3,167.8z"/>
		<path class="st0" d="M145,165.9c1.9,0,2.9,1.1,3.4,1.7l2.8-2.8c-1.1-1.4-3.1-2.5-6.1-2.5c-5,0-8.5,3.3-8.5,10.1
			c0,6.9,3.1,9.7,8,9.7c3.7,0,5.5-1.4,6.4-2.7l-2.6-2.6c-0.6,0.9-1.7,1.7-3.4,1.7c-2.6,0-4.1-2-4.1-6.5
			C140.9,167.5,142.5,165.9,145,165.9z"/>
		<path class="st0" d="M163.9,162.5c-2.5,0-4.3,1.2-5.2,2.2h-0.1v-8.9h-4.2v25.9h4.2v-13.1c0.6-1.4,2.2-2.6,3.9-2.6
			c2,0,3.1,1.3,3.1,3.5v12.2h4.2v-13C169.8,164.7,167.6,162.5,163.9,162.5z"/>
		<path class="st0" d="M186,175.7c-0.2,1.5-1.5,3.1-3.8,3.1c-2.1,0-3.2-1.2-3.2-3.7v-12.4h-4.2v12.9c0,4.4,2.1,6.6,6.1,6.6
			c2.6,0,4.2-1.1,5.1-2.2h0.1l0.6,1.8h3.5v-19.1H186V175.7z"/>
		<path class="st0" d="M202.2,178.5c-1.4,0-2.3-0.8-2.3-2.4V166h4.9v-3.3H200v-4.9h-2.7l-1.4,4.7l-2.6,0.9v2.6h2.6v10.1
			c0,4.2,2.1,5.9,5.3,5.9c2.8,0,4.2-0.6,4.9-1.1l-1.1-3.2C204.3,178.2,203.3,178.5,202.2,178.5z"/>
		<polygon class="st0" points="212.7,178.2 221.2,166.1 220.5,162.7 208.2,162.7 208.2,166.2 216.3,166.2 216.3,166.3 207.7,178.4 
			208.2,181.8 221.5,181.8 221.5,178.3 212.7,178.3 		"/>
	</g>
	<g>
		<path class="st0" d="M260.2,171.5v-0.1c2.8-0.4,5.2-2.5,5.2-6.6c0-5-3-6.9-8.1-6.9h-7.1v24h4.2v-9.3h0.9c1.3,0,2.1,0.4,2.7,1.5
			l4.1,7.8h5.1l-3.9-6.9C262.1,172.9,261.3,172,260.2,171.5z M256.7,169h-2.4v-7.6h2.3c2.8,0,4.3,1.1,4.3,3.7
			C261,167.8,259.6,169,256.7,169z"/>
		<path class="st0" d="M277.8,162.4c-6.1,0-8.4,4.1-8.4,10c0,5.9,2,9.8,8.2,9.8c6,0,8.4-4.1,8.4-10
			C286.1,166.3,284.1,162.4,277.8,162.4z M277.8,178.7c-3,0-4.1-2.3-4.1-6.6c0-4.3,1.1-6.4,3.9-6.4c3,0,4.2,2.2,4.2,6.6
			C281.8,176.7,280.8,178.7,277.8,178.7z"/>
		<path class="st0" d="M294.5,176.3v-20.5h-4.2v21.6c0,2.9,1.6,4.6,4.5,4.6c1,0,1.8-0.2,2.4-0.4v-3.4c-0.2,0.1-0.5,0.2-1,0.2
			C295.1,178.4,294.5,177.9,294.5,176.3z"/>
		<path class="st0" d="M305,176.3v-20.5h-4.2v21.6c0,2.9,1.6,4.6,4.5,4.6c1,0,1.8-0.2,2.4-0.4v-3.4c-0.2,0.1-0.5,0.2-1,0.2
			C305.6,178.4,305,177.9,305,176.3z"/>
		<path class="st0" d="M315.4,176.3v-20.5h-4.2v21.6c0,2.9,1.6,4.6,4.5,4.6c1,0,1.8-0.2,2.4-0.4v-3.4c-0.2,0.1-0.5,0.2-1,0.2
			C316,178.4,315.4,177.9,315.4,176.3z"/>
		<path class="st0" d="M334.8,176.5v-8c0-4.4-2.6-6.1-7.1-6.1c-4.1,0-5.9,2.4-6.6,3.4l3,2.3c0.5-1,1.6-2.2,3.6-2.2
			c1.9,0,3.2,0.7,3.2,3.2v1.7c-6.2-0.2-10.2,1.8-10.2,6.1c0,2.7,1.9,5.2,5.5,5.2c2.9,0,4.3-1.3,5.1-2.3h0.1c0.5,1.2,1.6,2.2,3.4,2.2
			c0.6,0,1.3-0.1,1.9-0.5v-2.9h-0.5C335.2,178.6,334.8,177.8,334.8,176.5z M330.8,177c-0.7,1-2,1.8-3.6,1.8c-1.6,0-2.5-1-2.5-2.3
			c0-2.1,2.3-3,6.1-2.8V177z"/>
		<path class="st0" d="M350.9,163c-0.7-0.2-1.6-0.4-3.1-0.4c-4.5,0-8.5,2.9-8.5,10.5c0,6.2,2.8,8.9,6.9,8.9c2.5,0,4.1-1.3,4.7-2.1
			h0.1l0.7,1.7h3.2v-25.9h-4.1V163z M351,176.6c-0.7,1.3-1.9,2.2-3.6,2.2c-2.2,0-3.9-1.6-3.9-5.9c0-5.2,1.9-6.6,4.8-6.6
			c0.9,0,2.1,0.2,2.6,0.6V176.6z"/>
		<path class="st0" d="M367.8,162.4c-5,0-8.5,3.4-8.5,9.8c0,6.7,3,9.9,8.8,9.9c3.3,0,5.2-0.9,6.5-2l-1.8-3c-0.7,0.7-2.2,1.6-4.2,1.6
			c-3.4,0-5-1.7-5.1-5.3h11.6c0.2-1.4,0.2-2.4,0.2-3.4C375.1,165.4,372.5,162.4,367.8,162.4z M371.2,170.4h-7.7
			c0.1-3.1,1.9-4.8,4.2-4.8c2.4,0,3.5,1.4,3.5,3.9V170.4z"/>
		<path class="st0" d="M388.8,162.3c-2.3,0-4.3,1.2-5.2,2.3h-0.1l-0.8-1.9h-3.2v19.1h4.2v-13.2c0.6-1.5,2-2.7,3.8-2.7
			c2,0,3.1,1.3,3.1,3.6v12.3h4.2v-13.2C394.7,164.3,392.6,162.3,388.8,162.3z"/>
	</g>
	<g>
		<rect x="423.5" y="157.8" class="st0" width="4.2" height="24"/>
		<path class="st0" d="M443.1,162.3c-2.3,0-4.3,1.2-5.2,2.3h-0.1l-0.8-1.9h-3.2v19.1h4.2v-13.2c0.6-1.5,2-2.7,3.8-2.7
			c2,0,3.1,1.3,3.1,3.6v12.3h4.2v-13.2C449,164.3,446.8,162.3,443.1,162.3z"/>
		<path class="st0" d="M457.5,167.8c0-1.1,0.9-2,2.6-2c1.6,0,3,0.9,3.8,1.7l2.7-2.7c-1.2-1.4-3.4-2.4-6.3-2.4
			c-4.3,0-6.8,2.7-6.8,5.7c0,6.4,9.1,5.2,9.1,8.5c0,1.2-0.8,2.1-2.8,2.1c-2.2,0-4.1-1.2-5-2.3l-2.5,3c1.1,1.1,3.5,2.7,7.3,2.7
			c5.1,0,7.2-3.2,7.2-5.8C466.7,169.9,457.5,171.2,457.5,167.8z"/>
		<path class="st0" d="M478.3,162.4c-5,0-8.6,3.4-8.6,9.8c0,6.7,3,9.9,8.8,9.9c3.3,0,5.2-0.9,6.5-2l-1.8-3c-0.7,0.7-2.2,1.6-4.2,1.6
			c-3.4,0-5-1.7-5.1-5.3h11.6c0.2-1.4,0.2-2.4,0.2-3.4C485.7,165.4,483,162.4,478.3,162.4z M481.7,170.4H474
			c0.1-3.1,1.9-4.8,4.2-4.8c2.4,0,3.5,1.4,3.5,3.9V170.4z"/>
		<polygon class="st0" points="499,171.6 505.1,162.7 500.2,162.7 494.4,171.7 494.4,171.8 500.3,181.8 505.3,181.8 499,171.7 		"/>
		<rect x="490" y="155.8" class="st0" width="4.2" height="25.9"/>
		<path class="st0" d="M515.5,178.5c-1.4,0-2.3-0.8-2.3-2.4V166h4.9v-3.3h-4.9v-4.9h-2.7l-1.4,4.7l-2.6,0.9v2.6h2.6v10.1
			c0,4.2,2.1,5.9,5.3,5.9c2.8,0,4.2-0.6,4.9-1.1l-1.1-3.2C517.5,178.2,516.6,178.5,515.5,178.5z"/>
		<path class="st0" d="M529.7,162.4c-5,0-8.6,3.4-8.6,9.8c0,6.7,3,9.9,8.8,9.9c3.3,0,5.2-0.9,6.5-2l-1.8-3c-0.7,0.7-2.2,1.6-4.2,1.6
			c-3.4,0-5-1.7-5.1-5.3h11.6c0.2-1.4,0.2-2.4,0.2-3.4C537,165.4,534.4,162.4,529.7,162.4z M533.1,170.4h-7.7
			c0.1-3.1,1.9-4.8,4.2-4.8c2.4,0,3.5,1.4,3.5,3.9V170.4z"/>
		<path class="st0" d="M550.7,162.3c-2.3,0-4.3,1.2-5.2,2.3h-0.1l-0.8-1.9h-3.2v19.1h4.2v-13.2c0.6-1.5,2-2.7,3.8-2.7
			c2,0,3.1,1.3,3.1,3.6v12.3h4.2v-13.2C556.6,164.3,554.5,162.3,550.7,162.3z"/>
		<path class="st0" d="M565.2,167.8c0-1.1,0.9-2,2.6-2c1.6,0,3,0.9,3.8,1.7l2.7-2.7c-1.2-1.4-3.4-2.4-6.3-2.4
			c-4.3,0-6.8,2.7-6.8,5.7c0,6.4,9.1,5.2,9.1,8.5c0,1.2-0.8,2.1-2.8,2.1c-2.2,0-4.1-1.2-5-2.3l-2.5,3c1.1,1.1,3.5,2.7,7.3,2.7
			c5.1,0,7.2-3.2,7.2-5.8C574.3,169.9,565.2,171.2,565.2,167.8z"/>
		<path class="st0" d="M585.9,165.9c1.9,0,2.9,1.1,3.4,1.7l2.8-2.8c-1.1-1.4-3.1-2.5-6.1-2.5c-5,0-8.5,3.3-8.5,10.1
			c0,6.9,3.1,9.7,8,9.7c3.7,0,5.5-1.4,6.4-2.7l-2.6-2.6c-0.6,0.9-1.7,1.7-3.4,1.7c-2.6,0-4.1-2-4.1-6.5
			C581.7,167.5,583.4,165.9,585.9,165.9z"/>
		<path class="st0" d="M604.8,162.5c-2.5,0-4.3,1.2-5.2,2.2h-0.1v-8.9h-4.2v25.9h4.2v-13.1c0.6-1.4,2.2-2.6,3.9-2.6
			c2,0,3.1,1.3,3.1,3.5v12.2h4.2v-13C610.7,164.7,608.4,162.5,604.8,162.5z"/>
		<path class="st0" d="M626.9,175.7c-0.2,1.5-1.5,3.1-3.8,3.1c-2.1,0-3.2-1.2-3.2-3.7v-12.4h-4.2v12.9c0,4.4,2.1,6.6,6.1,6.6
			c2.6,0,4.2-1.1,5.1-2.2h0.1l0.6,1.8h3.5v-19.1h-4.2V175.7z"/>
		<path class="st0" d="M643.1,178.5c-1.4,0-2.3-0.8-2.3-2.4V166h4.9v-3.3h-4.9v-4.9h-2.7l-1.4,4.7l-2.6,0.9v2.6h2.6v10.1
			c0,4.2,2.1,5.9,5.3,5.9c2.8,0,4.2-0.6,4.9-1.1l-1.1-3.2C645.1,178.2,644.2,178.5,643.1,178.5z"/>
		<polygon class="st0" points="653.5,178.2 662,166.1 661.4,162.7 649.1,162.7 649.1,166.2 657.2,166.2 657.2,166.3 648.5,178.4 
			649.1,181.8 662.4,181.8 662.4,178.3 653.5,178.3 		"/>
	</g>
	<g id="LOGO">
		<polygon class="st0" points="635,0 635,74.2 591.3,0 591.3,0 563.9,0 563.9,128.3 591.3,128.3 591.3,54 635,128.2 635.1,128.3 
			662.4,128.3 662.4,0 		"/>
		<path class="st0" d="M519.6,0h-48.7c-13.5,0-24.4,10.9-24.4,24.4v79.6c0,13.5,10.9,24.4,24.4,24.4h48.7
			c13.4,0,24.4-10.9,24.4-24.4V24.4C543.9,10.9,533,0,519.6,0z M516.5,101h-42.6V27.4h42.6V101z"/>
		<polygon class="st0" points="366.9,81.5 403.7,128.3 438.4,128.3 388.9,65.1 436.1,0 402.5,0 366.9,49 366.9,0 339.5,0 
			339.5,128.3 366.9,128.3 		"/>
		<path class="st0" d="M319,103.9V0h-27.4v101h-42.6V0h-27.4v103.9c0,13.5,10.9,24.4,24.4,24.4h48.7C308,128.3,319,117.4,319,103.9z
			"/>
		<polygon class="st0" points="201.5,102 155.5,102 155.5,0 128.1,0 128.1,128.3 201.5,128.3 		"/>
		<path class="st0" d="M0,128.3h26.9c6.6-13.8,12.3-23.3,12.3-23.3h41.7v23.3h27.2V0c0,0-3.1,1.9-12.5,8.4
			C90.7,11.7,29.5,52.8,0,128.3z M81.3,83.2H53.6C70.5,61.5,81.3,52,81.3,52V83.2z"/>
	</g>
</g>
</svg>
