<?xml version="1.0" encoding="utf-8"?>
<!-- Generator: Adobe Illustrator 23.1.1, SVG Export Plug-In . SVG Version: 6.00 Build 0)  -->
<svg version="1.1" id="Ebene_1" xmlns="http://www.w3.org/2000/svg" xmlns:xlink="http://www.w3.org/1999/xlink" x="0px" y="0px"
	 viewBox="0 0 410 89.4" style="enable-background:new 0 0 410 89.4;" xml:space="preserve">
<style type="text/css">
	.st0{fill:#535B67;}
	.st1{fill:#00975F;}
</style>
<g>
	<path class="st0" d="M7,73.5H5.3l-2,11.1L2.2,73.5H0.4l1.8,15.2h2l2-11.5l2,11.5h2L12,73.5h-1.8L9,84.6L7,73.5L7,73.5z M23.4,75.2
		H27V87h-3.6v1.7h9.2V87H29V75.2h3.6v-1.7h-9.2V75.2L23.4,75.2z M54.9,73.5h-2l0,11.3l-5.9-11.3h-2v15.2h2l0-11.4L53,88.7h2V73.5
		L54.9,73.5z M70.7,88.7c1.1,0,2-0.2,2.8-0.5c0.8-0.3,1.5-0.8,2.1-1.4c0.6-0.6,1-1.4,1.3-2.2c0.3-0.9,0.5-1.8,0.5-2.9v-1.1
		c0-1-0.2-2-0.5-2.9c-0.3-0.9-0.7-1.6-1.3-2.2c-0.6-0.6-1.3-1.1-2.1-1.4c-0.8-0.3-1.8-0.5-2.8-0.5h-3.5v15.2H70.7L70.7,88.7z
		 M70.7,75.1c0.8,0,1.5,0.2,2.1,0.4c0.6,0.3,1.1,0.7,1.5,1.1c0.4,0.5,0.7,1.1,0.9,1.7c0.2,0.7,0.3,1.4,0.3,2.1v1.1
		c0,0.8-0.1,1.5-0.3,2.2c-0.2,0.7-0.5,1.2-0.9,1.7c-0.4,0.5-0.9,0.9-1.5,1.2c-0.6,0.3-1.3,0.4-2.1,0.4h-1.6v-12H70.7L70.7,75.1z
		 M99.3,80.2c0-0.5-0.1-1.1-0.1-1.6c-0.1-0.6-0.2-1.1-0.4-1.6c-0.2-0.5-0.4-1-0.7-1.4c-0.3-0.4-0.6-0.8-1-1.2
		c-0.4-0.3-0.8-0.6-1.3-0.8c-0.5-0.2-1.1-0.3-1.7-0.3c-0.6,0-1.2,0.1-1.7,0.3c-0.5,0.2-1,0.5-1.3,0.8c-0.4,0.3-0.7,0.7-1,1.2
		c-0.3,0.4-0.5,0.9-0.7,1.4c-0.2,0.5-0.3,1-0.4,1.6c-0.1,0.6-0.1,1.1-0.1,1.6V82c0,0.5,0.1,1.1,0.1,1.6c0.1,0.6,0.2,1.1,0.4,1.6
		c0.2,0.5,0.4,1,0.7,1.4c0.3,0.4,0.6,0.8,1,1.2c0.4,0.3,0.8,0.6,1.3,0.8c0.5,0.2,1.1,0.3,1.7,0.3c0.6,0,1.2-0.1,1.7-0.3
		c0.5-0.2,1-0.5,1.3-0.8c0.4-0.3,0.7-0.7,1-1.2c0.3-0.4,0.5-0.9,0.7-1.4c0.2-0.5,0.3-1,0.4-1.6c0.1-0.6,0.1-1.1,0.1-1.6V80.2
		L99.3,80.2z M97.4,82c0,0.4,0,0.7-0.1,1.1c0,0.4-0.1,0.8-0.2,1.2c-0.1,0.4-0.2,0.8-0.4,1.1c-0.2,0.4-0.4,0.7-0.6,0.9
		c-0.2,0.3-0.5,0.5-0.9,0.6c-0.3,0.2-0.7,0.2-1.2,0.2s-0.8-0.1-1.2-0.2c-0.3-0.2-0.6-0.4-0.9-0.6c-0.3-0.3-0.5-0.6-0.6-0.9
		c-0.2-0.4-0.3-0.7-0.4-1.1c-0.1-0.4-0.2-0.8-0.2-1.2c0-0.4-0.1-0.8-0.1-1.1v-1.8c0-0.4,0-0.7,0.1-1.1c0-0.4,0.1-0.8,0.2-1.2
		c0.1-0.4,0.2-0.8,0.4-1.1c0.2-0.4,0.4-0.7,0.6-0.9c0.3-0.3,0.5-0.5,0.9-0.6c0.3-0.2,0.7-0.2,1.2-0.2c0.5,0,0.8,0.1,1.2,0.2
		c0.3,0.2,0.6,0.4,0.9,0.6c0.3,0.3,0.5,0.6,0.6,0.9c0.2,0.4,0.3,0.7,0.4,1.1c0.1,0.4,0.2,0.8,0.2,1.2c0,0.4,0.1,0.8,0.1,1.1V82
		L97.4,82z M117,73.5h-1.7l-2,11.1l-1.2-11.1h-1.8l1.8,15.2h2l2-11.5l2,11.5h2l1.8-15.2h-1.8l-1.2,11.1L117,73.5L117,73.5z
		 M144.3,86.4c0.2,0.5,0.5,0.9,0.9,1.3c0.4,0.4,0.9,0.6,1.4,0.8c0.6,0.2,1.2,0.3,1.9,0.3c0.7,0,1.3-0.1,2-0.3c0.6-0.2,1.2-0.6,1.7-1
		l0.9,1.1h2.3l-1.9-2.5c0.5-0.6,0.9-1.3,1.1-2.1c0.3-0.8,0.4-1.6,0.4-2.5h-1.7c0,0.6-0.1,1.2-0.2,1.7c-0.1,0.5-0.3,1-0.6,1.5
		l-3.2-4.2l1-0.8c0.3-0.2,0.6-0.5,0.9-0.7c0.3-0.2,0.5-0.5,0.7-0.8c0.2-0.3,0.3-0.5,0.4-0.9c0.1-0.3,0.2-0.6,0.2-1
		c0-0.4-0.1-0.8-0.2-1.2c-0.2-0.4-0.4-0.7-0.7-1c-0.3-0.3-0.6-0.5-1-0.7c-0.4-0.2-0.9-0.3-1.3-0.3c-0.6,0-1.1,0.1-1.5,0.2
		c-0.5,0.2-0.9,0.4-1.2,0.7c-0.3,0.3-0.6,0.7-0.8,1.1c-0.2,0.5-0.3,1-0.3,1.6c0,0.6,0.1,1.2,0.4,1.8c0.3,0.6,0.6,1.2,1.1,1.8
		c-0.4,0.3-0.8,0.6-1.2,0.9c-0.3,0.3-0.6,0.6-0.9,1c-0.3,0.3-0.4,0.7-0.6,1.1c-0.1,0.4-0.2,0.8-0.2,1.3
		C144,85.4,144.1,85.9,144.3,86.4L144.3,86.4z M147.4,87.1c-0.3-0.1-0.6-0.3-0.8-0.5c-0.2-0.2-0.4-0.5-0.5-0.8
		c-0.1-0.3-0.2-0.6-0.2-1c0-0.1,0-0.3,0.1-0.5c0-0.2,0.1-0.4,0.2-0.7c0.1-0.2,0.3-0.5,0.5-0.8c0.2-0.3,0.5-0.5,0.8-0.8l0.3-0.3
		l3.4,4.5c-0.4,0.3-0.8,0.6-1.3,0.8c-0.5,0.2-0.9,0.3-1.4,0.3C148.1,87.3,147.7,87.3,147.4,87.1L147.4,87.1z M147.4,76.1
		c0.1-0.2,0.2-0.5,0.3-0.7c0.1-0.2,0.3-0.3,0.6-0.4c0.2-0.1,0.5-0.2,0.8-0.2c0.2,0,0.4,0,0.6,0.1c0.2,0.1,0.3,0.2,0.5,0.4
		c0.1,0.2,0.2,0.3,0.3,0.5c0.1,0.2,0.1,0.4,0.1,0.6c0,0.2,0,0.3,0,0.5c0,0.2-0.1,0.3-0.2,0.5c-0.1,0.2-0.2,0.3-0.3,0.5
		c-0.1,0.2-0.3,0.3-0.5,0.5l-1.2,1c-0.3-0.5-0.6-0.9-0.7-1.3c-0.2-0.4-0.3-0.8-0.3-1.2C147.2,76.6,147.3,76.4,147.4,76.1L147.4,76.1
		z M180.8,88.7c1.1,0,2-0.2,2.8-0.5c0.8-0.3,1.5-0.8,2.1-1.4c0.6-0.6,1-1.4,1.3-2.2c0.3-0.9,0.5-1.8,0.5-2.9v-1.1c0-1-0.2-2-0.5-2.9
		c-0.3-0.9-0.7-1.6-1.3-2.2c-0.6-0.6-1.3-1.1-2.1-1.4c-0.8-0.3-1.8-0.5-2.8-0.5h-3.5v15.2H180.8L180.8,88.7z M180.8,75.1
		c0.8,0,1.5,0.2,2.1,0.4c0.6,0.3,1.1,0.7,1.5,1.1c0.4,0.5,0.7,1.1,0.9,1.7c0.2,0.7,0.3,1.4,0.3,2.1v1.1c0,0.8-0.1,1.5-0.3,2.2
		c-0.2,0.7-0.5,1.2-0.9,1.7c-0.4,0.5-0.9,0.9-1.5,1.2c-0.6,0.3-1.3,0.4-2.1,0.4h-1.6v-12H180.8L180.8,75.1z M209,80.2
		c0-0.5-0.1-1.1-0.1-1.6c-0.1-0.6-0.2-1.1-0.4-1.6c-0.2-0.5-0.4-1-0.7-1.4c-0.3-0.4-0.6-0.8-1-1.2c-0.4-0.3-0.8-0.6-1.3-0.8
		c-0.5-0.2-1.1-0.3-1.7-0.3c-0.6,0-1.2,0.1-1.7,0.3c-0.5,0.2-1,0.5-1.3,0.8c-0.4,0.3-0.7,0.7-1,1.2c-0.3,0.4-0.5,0.9-0.7,1.4
		c-0.2,0.5-0.3,1-0.4,1.6s-0.1,1.1-0.1,1.6V82c0,0.5,0.1,1.1,0.1,1.6c0.1,0.6,0.2,1.1,0.4,1.6c0.2,0.5,0.4,1,0.7,1.4
		c0.3,0.4,0.6,0.8,1,1.2c0.4,0.3,0.8,0.6,1.3,0.8c0.5,0.2,1.1,0.3,1.7,0.3c0.6,0,1.2-0.1,1.7-0.3c0.5-0.2,1-0.5,1.3-0.8
		c0.4-0.3,0.7-0.7,1-1.2c0.3-0.4,0.5-0.9,0.7-1.4c0.2-0.5,0.3-1,0.4-1.6c0.1-0.6,0.1-1.1,0.1-1.6V80.2L209,80.2z M207.1,82
		c0,0.4,0,0.7-0.1,1.1c0,0.4-0.1,0.8-0.2,1.2c-0.1,0.4-0.2,0.8-0.4,1.1c-0.2,0.4-0.4,0.7-0.6,0.9c-0.2,0.3-0.5,0.5-0.9,0.6
		c-0.3,0.2-0.7,0.2-1.2,0.2c-0.5,0-0.8-0.1-1.2-0.2c-0.3-0.2-0.6-0.4-0.9-0.6c-0.3-0.3-0.5-0.6-0.6-0.9c-0.2-0.4-0.3-0.7-0.4-1.1
		c-0.1-0.4-0.2-0.8-0.2-1.2c0-0.4-0.1-0.8-0.1-1.1v-1.8c0-0.4,0-0.7,0.1-1.1c0-0.4,0.1-0.8,0.2-1.2c0.1-0.4,0.2-0.8,0.4-1.1
		c0.2-0.4,0.4-0.7,0.6-0.9c0.3-0.3,0.5-0.5,0.9-0.6c0.3-0.2,0.7-0.2,1.2-0.2c0.5,0,0.8,0.1,1.2,0.2c0.3,0.2,0.6,0.4,0.9,0.6
		c0.3,0.3,0.5,0.6,0.6,0.9c0.2,0.4,0.3,0.7,0.4,1.1c0.1,0.4,0.2,0.8,0.2,1.2c0,0.4,0.1,0.8,0.1,1.1V82L207.1,82z M230.5,80.2
		c0-0.5-0.1-1.1-0.1-1.6c-0.1-0.6-0.2-1.1-0.4-1.6c-0.2-0.5-0.4-1-0.7-1.4c-0.3-0.4-0.6-0.8-1-1.2c-0.4-0.3-0.8-0.6-1.3-0.8
		c-0.5-0.2-1.1-0.3-1.7-0.3c-0.6,0-1.2,0.1-1.7,0.3c-0.5,0.2-1,0.5-1.3,0.8c-0.4,0.3-0.7,0.7-1,1.2c-0.3,0.4-0.5,0.9-0.7,1.4
		c-0.2,0.5-0.3,1-0.4,1.6c-0.1,0.6-0.1,1.1-0.1,1.6V82c0,0.5,0.1,1.1,0.1,1.6c0.1,0.6,0.2,1.1,0.4,1.6c0.2,0.5,0.4,1,0.7,1.4
		c0.3,0.4,0.6,0.8,1,1.2c0.4,0.3,0.8,0.6,1.3,0.8c0.5,0.2,1.1,0.3,1.7,0.3c0.6,0,1.2-0.1,1.7-0.3c0.5-0.2,1-0.5,1.3-0.8
		c0.4-0.3,0.7-0.7,1-1.2c0.3-0.4,0.5-0.9,0.7-1.4c0.2-0.5,0.3-1,0.4-1.6c0.1-0.6,0.1-1.1,0.1-1.6V80.2L230.5,80.2z M228.6,82
		c0,0.4,0,0.7-0.1,1.1c0,0.4-0.1,0.8-0.2,1.2c-0.1,0.4-0.2,0.8-0.4,1.1c-0.2,0.4-0.4,0.7-0.6,0.9c-0.2,0.3-0.5,0.5-0.9,0.6
		c-0.3,0.2-0.7,0.2-1.2,0.2c-0.5,0-0.8-0.1-1.2-0.2c-0.3-0.2-0.6-0.4-0.9-0.6c-0.3-0.3-0.5-0.6-0.6-0.9c-0.2-0.4-0.3-0.7-0.4-1.1
		c-0.1-0.4-0.2-0.8-0.2-1.2c0-0.4-0.1-0.8-0.1-1.1v-1.8c0-0.4,0-0.7,0.1-1.1c0-0.4,0.1-0.8,0.2-1.2c0.1-0.4,0.2-0.8,0.4-1.1
		c0.2-0.4,0.4-0.7,0.6-0.9c0.3-0.3,0.5-0.5,0.9-0.6c0.3-0.2,0.7-0.2,1.2-0.2c0.5,0,0.8,0.1,1.2,0.2c0.3,0.2,0.6,0.4,0.9,0.6
		c0.3,0.3,0.5,0.6,0.6,0.9c0.2,0.4,0.3,0.7,0.4,1.1c0.1,0.4,0.2,0.8,0.2,1.2c0,0.4,0.1,0.8,0.1,1.1V82L228.6,82z M250.2,88.7h2
		l0-0.1l-3.2-6.5c0.4-0.2,0.8-0.4,1.1-0.7c0.3-0.3,0.6-0.6,0.9-0.9c0.3-0.3,0.4-0.7,0.6-1.1c0.1-0.4,0.2-0.9,0.2-1.4
		c0-0.8-0.1-1.4-0.4-2c-0.3-0.6-0.6-1-1.1-1.4c-0.5-0.4-1-0.7-1.6-0.8c-0.6-0.2-1.3-0.3-2-0.3h-4.5v15.2h1.9v-6.2h3L250.2,88.7
		L250.2,88.7z M244.2,75.1h2.5c0.5,0,0.9,0.1,1.3,0.2c0.4,0.1,0.7,0.3,1,0.6c0.3,0.2,0.5,0.6,0.7,0.9c0.2,0.4,0.2,0.8,0.2,1.3
		c0,0.5-0.1,0.9-0.3,1.2c-0.2,0.4-0.4,0.6-0.7,0.9c-0.3,0.2-0.6,0.4-1,0.6c-0.4,0.1-0.8,0.2-1.2,0.2h-2.6V75.1L244.2,75.1z
		 M282.8,85.9c-0.2,0.3-0.4,0.6-0.7,0.8c-0.3,0.2-0.6,0.3-1,0.4c-0.4,0.1-0.7,0.1-1.1,0.1c-0.5,0-0.9-0.1-1.3-0.2
		c-0.4-0.1-0.8-0.3-1.1-0.6c-0.3-0.3-0.6-0.6-0.8-0.9c-0.2-0.4-0.3-0.8-0.4-1.3h-2c0,0.7,0.2,1.4,0.5,1.9c0.3,0.6,0.7,1,1.2,1.4
		c0.5,0.4,1.1,0.7,1.7,0.9c0.6,0.2,1.3,0.3,2,0.3c0.6,0,1.2-0.1,1.8-0.3c0.6-0.2,1.1-0.4,1.6-0.8c0.5-0.3,0.9-0.8,1.2-1.3
		c0.3-0.5,0.5-1.1,0.5-1.8c0-0.5-0.1-0.9-0.2-1.2c-0.1-0.4-0.3-0.7-0.5-1c-0.2-0.3-0.5-0.6-0.8-0.8c-0.3-0.2-0.6-0.5-1-0.7
		c-0.4-0.2-0.7-0.4-1.1-0.5c-0.4-0.2-0.8-0.3-1.1-0.4c-0.3-0.1-0.7-0.2-1.1-0.4c-0.4-0.1-0.7-0.3-1.1-0.5c-0.3-0.2-0.6-0.5-0.8-0.8
		c-0.2-0.3-0.3-0.7-0.3-1.1c0-0.4,0.1-0.8,0.2-1.1c0.2-0.3,0.4-0.6,0.7-0.8c0.3-0.2,0.6-0.4,0.9-0.5c0.4-0.1,0.7-0.2,1.1-0.2
		c0.5,0,0.9,0.1,1.2,0.2c0.4,0.1,0.7,0.3,0.9,0.6c0.3,0.3,0.5,0.6,0.6,0.9c0.2,0.4,0.3,0.8,0.3,1.2h2c0-0.7-0.2-1.3-0.4-1.9
		c-0.3-0.6-0.7-1-1.1-1.4s-1-0.7-1.6-0.9c-0.6-0.2-1.2-0.3-1.9-0.3c-0.6,0-1.2,0.1-1.8,0.3c-0.6,0.2-1.1,0.5-1.6,0.8
		c-0.5,0.4-0.8,0.8-1.1,1.3c-0.3,0.5-0.4,1.1-0.4,1.8c0,0.7,0.1,1.2,0.4,1.7c0.3,0.5,0.7,0.9,1.1,1.3c0.5,0.4,1,0.7,1.5,0.9
		c0.6,0.2,1.1,0.5,1.6,0.6c0.4,0.1,0.8,0.3,1.2,0.4c0.4,0.1,0.8,0.3,1.1,0.5c0.3,0.2,0.6,0.5,0.8,0.8c0.2,0.3,0.3,0.7,0.3,1.2
		C283,85.3,282.9,85.6,282.8,85.9L282.8,85.9z M296.8,73.5h-2.2l4.7,9.5l0,5.7h1.8l0-5.7l4.7-9.5h-2.2l-3.5,7.6L296.8,73.5
		L296.8,73.5z M324.2,85.9c-0.2,0.3-0.4,0.6-0.7,0.8c-0.3,0.2-0.6,0.3-1,0.4c-0.4,0.1-0.7,0.1-1.1,0.1c-0.5,0-0.9-0.1-1.3-0.2
		c-0.4-0.1-0.8-0.3-1.1-0.6c-0.3-0.3-0.6-0.6-0.8-0.9c-0.2-0.4-0.3-0.8-0.4-1.3h-2c0,0.7,0.2,1.4,0.5,1.9c0.3,0.6,0.7,1,1.2,1.4
		c0.5,0.4,1.1,0.7,1.7,0.9c0.6,0.2,1.3,0.3,2,0.3c0.6,0,1.2-0.1,1.8-0.3c0.6-0.2,1.1-0.4,1.6-0.8c0.5-0.3,0.9-0.8,1.2-1.3
		c0.3-0.5,0.5-1.1,0.5-1.8c0-0.5-0.1-0.9-0.2-1.2c-0.1-0.4-0.3-0.7-0.5-1c-0.2-0.3-0.5-0.6-0.8-0.8c-0.3-0.2-0.6-0.5-1-0.7
		c-0.4-0.2-0.7-0.4-1.1-0.5c-0.4-0.2-0.8-0.3-1.1-0.4c-0.3-0.1-0.7-0.2-1.1-0.4c-0.4-0.1-0.7-0.3-1.1-0.5c-0.3-0.2-0.6-0.5-0.8-0.8
		c-0.2-0.3-0.3-0.7-0.3-1.1c0-0.4,0.1-0.8,0.2-1.1c0.2-0.3,0.4-0.6,0.7-0.8c0.3-0.2,0.6-0.4,0.9-0.5c0.4-0.1,0.7-0.2,1.1-0.2
		c0.5,0,0.9,0.1,1.2,0.2c0.4,0.1,0.7,0.3,0.9,0.6c0.3,0.3,0.5,0.6,0.6,0.9c0.2,0.4,0.3,0.8,0.3,1.2h2c0-0.7-0.2-1.3-0.4-1.9
		c-0.3-0.6-0.7-1-1.1-1.4c-0.5-0.4-1-0.7-1.6-0.9c-0.6-0.2-1.2-0.3-1.9-0.3c-0.6,0-1.2,0.1-1.8,0.3c-0.6,0.2-1.1,0.5-1.6,0.8
		c-0.5,0.4-0.8,0.8-1.1,1.3c-0.3,0.5-0.4,1.1-0.4,1.8c0,0.7,0.1,1.2,0.4,1.7c0.3,0.5,0.7,0.9,1.1,1.3c0.5,0.4,1,0.7,1.5,0.9
		c0.6,0.2,1.1,0.5,1.6,0.6c0.4,0.1,0.8,0.3,1.2,0.4c0.4,0.1,0.8,0.3,1.1,0.5c0.3,0.2,0.6,0.5,0.8,0.8c0.2,0.3,0.3,0.7,0.3,1.2
		C324.4,85.3,324.3,85.6,324.2,85.9L324.2,85.9z M347.4,73.5h-11.3v1.6h4.7v13.6h1.9V75.1h4.7V73.5L347.4,73.5z M366.3,80h-6.3v-4.9
		h7.3v-1.6H358v15.2h9.3V87h-7.4v-5.4h6.3V80L366.3,80z M378.3,73.5v15.2h1.9v-6.1l-0.2-6.1l2.6,8h1.1l2.8-8.2l-0.2,6.3v6.1h1.9
		V73.5h-2.4l-2.7,7.6l-2.5-7.6H378.3L378.3,73.5z M407,85.9c-0.2,0.3-0.4,0.6-0.7,0.8c-0.3,0.2-0.6,0.3-1,0.4
		c-0.4,0.1-0.7,0.1-1.1,0.1c-0.5,0-0.9-0.1-1.3-0.2c-0.4-0.1-0.8-0.3-1.1-0.6c-0.3-0.3-0.6-0.6-0.8-0.9c-0.2-0.4-0.3-0.8-0.4-1.3h-2
		c0,0.7,0.2,1.4,0.5,1.9c0.3,0.6,0.7,1,1.2,1.4c0.5,0.4,1.1,0.7,1.7,0.9c0.6,0.2,1.3,0.3,2,0.3c0.6,0,1.2-0.1,1.8-0.3
		c0.6-0.2,1.1-0.4,1.6-0.8c0.5-0.3,0.9-0.8,1.2-1.3c0.3-0.5,0.5-1.1,0.5-1.8c0-0.5-0.1-0.9-0.2-1.2c-0.1-0.4-0.3-0.7-0.5-1
		c-0.2-0.3-0.5-0.6-0.8-0.8c-0.3-0.2-0.6-0.5-1-0.7c-0.4-0.2-0.7-0.4-1.1-0.5c-0.4-0.2-0.8-0.3-1.1-0.4c-0.3-0.1-0.7-0.2-1.1-0.4
		c-0.4-0.1-0.7-0.3-1.1-0.5c-0.3-0.2-0.6-0.5-0.8-0.8c-0.2-0.3-0.3-0.7-0.3-1.1c0-0.4,0.1-0.8,0.2-1.1c0.2-0.3,0.4-0.6,0.7-0.8
		c0.3-0.2,0.6-0.4,0.9-0.5c0.4-0.1,0.7-0.2,1.1-0.2c0.5,0,0.9,0.1,1.2,0.2c0.4,0.1,0.7,0.3,0.9,0.6c0.3,0.3,0.5,0.6,0.6,0.9
		c0.2,0.4,0.3,0.8,0.3,1.2h2c0-0.7-0.2-1.3-0.4-1.9c-0.3-0.6-0.7-1-1.1-1.4c-0.5-0.4-1-0.7-1.6-0.9c-0.6-0.2-1.2-0.3-1.9-0.3
		c-0.6,0-1.2,0.1-1.8,0.3c-0.6,0.2-1.1,0.5-1.6,0.8c-0.5,0.4-0.8,0.8-1.1,1.3c-0.3,0.5-0.4,1.1-0.4,1.8c0,0.7,0.1,1.2,0.4,1.7
		c0.3,0.5,0.7,0.9,1.1,1.3c0.5,0.4,1,0.7,1.5,0.9c0.6,0.2,1.1,0.5,1.6,0.6c0.4,0.1,0.8,0.3,1.2,0.4c0.4,0.1,0.8,0.3,1.1,0.5
		c0.3,0.2,0.6,0.5,0.8,0.8c0.2,0.3,0.3,0.7,0.3,1.2C407.3,85.3,407.2,85.6,407,85.9L407,85.9z"/>
	<path class="st1" d="M0.8,48.8c3.2,1.4,7.6,2.1,11.2,2.1c9.8,0,16.4-5.5,16.4-14.7c0-7.3-4.1-10.9-10.4-14.5l-2.2-1.2
		c-4.1-2.4-5.9-3.6-5.9-7c0-4.5,3.9-6.2,7.1-6.2c3.3,0,6.5,1.1,9,2.5L26.4,2c-2.9-1-5.9-1.6-10.2-1.6C8.8,0.4,0.5,4.9,0.5,14.7
		c0,5.9,2.8,9.4,8.7,12.6l2.5,1.3c3.6,2,7.3,4.3,7.3,8.6c0,3.6-2.1,7-7.6,7c-2.4,0-6.6-0.8-10.1-3.2L0.8,48.8L0.8,48.8z M41.4,50.1
		l3.3-12h16.1l3.3,12h9.3L58,1.1H47.9l-15.5,49H41.4L41.4,50.1z M52.7,8.8l6.5,22.8H46.3L52.7,8.8L52.7,8.8z M104.2,50.1v-7.3H88.8
		V1.1h-9v49H104.2L104.2,50.1z M118.8,50.1l3.3-12h16.1l3.3,12h9.3l-15.4-49h-10.1l-15.5,49H118.8L118.8,50.1z M130,8.8l6.5,22.8
		h-12.8L130,8.8L130,8.8z M164.9,50.1v-41l11.3,41h6.7l11.3-41v41h8.7v-49h-13.1l-9.9,36.6l-9.6-36.6h-13.1v49H164.9L164.9,50.1z
		 M218.3,50.1l3.3-12h16.1l3.3,12h9.3l-15.4-49h-10.1l-15.5,49H218.3L218.3,50.1z M229.5,8.8l6.5,22.8h-12.8L229.5,8.8L229.5,8.8z
		 M264.4,50.1V11.6l15,38.5h11.7v-49h-7.9v38.6L268.4,1.1h-11.7v49H264.4L264.4,50.1z M309.7,8.2h2.9c10.6,0,13.8,7.4,13.8,17
		c0,9.2-3.2,17.9-13.3,17.9h-3.4V8.2L309.7,8.2z M313.3,50.1c14.7,0,22.4-10.9,22.4-25c0-15.1-7.6-24-23.3-24h-11.7v49H313.3
		L313.3,50.1z M368.9,50.1v-7h-17.3V28.3h15.5v-7h-15.5V8.2h16.5v-7h-25.4v49H368.9L368.9,50.1z M386.2,50.1V29.3h3.7
		c3,0,4.3,1.8,5.4,5.5l4.7,15.3h9.5l-6.1-17.9c-1.4-4-2.7-5.7-5.9-6.5c6.2-1.2,9.7-5.5,9.7-11.9c0-8.2-6.5-12.6-14.3-12.6h-15.6v49
		H386.2L386.2,50.1z M386.1,8h4.2c4.7,0,7.7,2.1,7.7,7c0,4.7-2.6,7.4-7.6,7.4h-4.3V8L386.1,8z"/>
</g>
</svg>
